
<svg xmlns="http://www.w3.org/2000/svg" fill="#80a3b1" xmlns:xlink="http://www.w3.org/1999/xlink" version="1.1" x="0px" y="0px" viewBox="0 0 50 62.5" enable-background="new 0 0 50 50" xml:space="preserve">
    <g><path d="M25.1,33.4l2.6-22l2.6,22c6.6-1.6,8.4-8.8,8.5-9.3c-2.2,2.7-1.5-3.1-1.5-3.1c-2.7,4-0.8-4.9-0.6-5.6   c-2.2,3.9-2.5-6.4-2.5-6.4c-2.7,4.1-3.6-4.1-3.6-4.1C28.3,8.1,27.8,1,27.8,1s-0.5,7.1-2.9,3.8c0,0-0.9,8.2-3.6,4.1   c0,0-0.3,10.3-2.5,6.4c0.1,0.7,2,9.6-0.6,5.6c0,0,0.7,5.9-1.5,3.1C16.7,24.6,18.5,31.9,25.1,33.4z"/><polygon points="26.4,37.3 29.1,37.3 27.8,23.7  "/><path d="M47.3,30.8c0,0-3.6,3.1-3.2,0.4c0,0-4.3,3.5-3.6,0.2c0,0-5,4.8-4.2,1.9c-0.3,0.4-3.6,5.6-3,2.4   c0,0-2.5,3.1-2.2,0.8c-0.2,0.3-2.8,4.6-0.4,8.5l11.8-9.2l-9.2,11.8c3.9,2.4,8.2-0.2,8.5-0.4c-2.3,0.2,0.8-2.2,0.8-2.2   c-3.2,0.6,2-2.7,2.4-3c-2.9,0.8,1.9-4.2,1.9-4.2c-3.3,0.7,0.2-3.6,0.2-3.6C44.2,34.4,47.3,30.8,47.3,30.8z"/><polygon points="29.1,47.7 30.4,49 36.1,42  "/><path d="M23.6,44c3-4.9-0.3-10.3-0.5-10.6c0.3,2.9-2.8-1-2.8-1c0.8,4-3.4-2.5-3.7-3c1,3.6-5.3-2.3-5.3-2.3   c0.8,4.1-4.6-0.3-4.6-0.3c0.5,3.4-4-0.6-4-0.6s3.9,4.6,0.6,4c0,0,4.4,5.4,0.3,4.6c0,0,6,6.3,2.3,5.3c0.5,0.3,6.9,4.5,3,3.7   c0,0,3.9,3.1,1,2.8c0.4,0.2,5.8,3.5,10.6,0.5L8.9,32.4L23.6,44z"/><polygon points="23.9,49 25.4,47.5 17.1,40.6  "/></g></svg>